# xmcd
#
# Track frame offsets:
#	150
#	13799
#	24387
#	40528
#	54747
#	69599
#	81770
#	95178
#	106826
#	121631
#	132766
#	145737
#	159120
#	171730
#	185881
#	195692
#	208775
#	222122
#	236066
#	247749
#	260725
#	274322
#	285118
#	296200
#	308455
#
# Disc length: 4274 seconds
#
# Revision: 0
# Processed by: cddbd v1.5.2PL0 Copyright (c) Steve Scherf et al.
# Submitted via: audiograbber 1.83.01
#
DISCID=6c10b019
DTITLE=Various Artist - The War Years CD4
DYEAR=1900
DGENRE=Oldies
TTITLE0=Vera Lynn - There'll Always Be An England
TTITLE1=Gracie Fields - Sally
TTITLE2=Glenn Miller - In The Mood
TTITLE3=The Andrews Sisters - Rum and Coca Cola
TTITLE4=Nat King Cole - The Frim Fram Sauce
TTITLE5=Benny Goodman - Mission To Moscow
TTITLE6=Ella Fitzgerald - Little White Lies
TTITLE7=Bob Wills - New San Antonio Rose
TTITLE8=Billie Holiday - Lover Man
TTITLE9=Sidney Bechet - One O'clock Jump
TTITLE10=Jo Stafford - Bye Bye Blackbird
TTITLE11=Peggy Lee - Baby (Is What He Calls Me)
TTITLE12=Dick Haymes and The Song Spinners - You'll Never Know
TTITLE13=Cab Colloway - A Smo-o-o-oth One
TTITLE14=Artie Shaw - Deuces Wild
TTITLE15=Big Joe Turner - Cherry Red
TTITLE16=Coleman Hawkins - A Shanty In Old Shanty Town
TTITLE17=Frank Sinatra - I'll Be Seeing You
TTITLE18=Lester Young - Who?
TTITLE19=Perry Como - Mr Meadowlark
TTITLE20=Django Reinhardt - Les Yeux Noirs
TTITLE21=Duke Ellington - Perdido
TTITLE22=Deanna Durbin - Amapola
TTITLE23=George Formby - The Blue Eyed Blond Next Door
TTITLE24=Flanagan and Allen - Down Forget-me-not Lane
EXTD=(p)2009 Weton-Wesgram BV
EXTT0=
EXTT1=
EXTT2=
EXTT3=
EXTT4=
EXTT5=
EXTT6=
EXTT7=
EXTT8=
EXTT9=
EXTT10=
EXTT11=
EXTT12=
EXTT13=
EXTT14=
EXTT15=
EXTT16=
EXTT17=
EXTT18=
EXTT19=
EXTT20=
EXTT21=
EXTT22=
EXTT23=
EXTT24=
PLAYORDER=
